<svg width="200" height="50" viewBox="0 0 200 50" fill="none" xmlns="http://www.w3.org/2000/svg">
<path d="M3.3849 28.1997H11.0283V46.1981C11.0283 50.3978 13.2792 51.2477 16.0249 48.098L34.7499 26.5999C37.0503 23.9751 36.0856 21.8003 32.5979 21.8003H24.9545V3.80185C24.9545 -0.39778 22.7035 -1.24771 19.9579 1.90202L1.23289 23.4001C-1.04281 26.0499 -0.0781093 28.1997 3.3849 28.1997Z" fill="white"/>
<path d="M65.16 35V12.65H69.24V31.4H78.81V35H65.16ZM86.9391 35.36C85.6791 35.36 84.5791 35.08 83.6391 34.52C82.7191 33.96 82.0091 33.18 81.5091 32.18C81.0291 31.18 80.7891 30.01 80.7891 28.67V18.68H84.7191V28.34C84.7191 29.02 84.8491 29.62 85.1091 30.14C85.3891 30.64 85.7791 31.04 86.2791 31.34C86.7991 31.62 87.3791 31.76 88.0191 31.76C88.6591 31.76 89.2291 31.62 89.7291 31.34C90.2291 31.04 90.6191 30.63 90.8991 30.11C91.1791 29.59 91.3191 28.97 91.3191 28.25V18.68H95.2491V35H91.5291V31.79L91.8591 32.36C91.4791 33.36 90.8491 34.11 89.9691 34.61C89.1091 35.11 88.0991 35.36 86.9391 35.36ZM98.9023 35V18.68H102.592V22.46L102.172 21.83C102.472 20.65 103.072 19.77 103.972 19.19C104.872 18.61 105.932 18.32 107.152 18.32C108.492 18.32 109.672 18.67 110.692 19.37C111.712 20.07 112.372 20.99 112.672 22.13L111.562 22.22C112.062 20.92 112.812 19.95 113.812 19.31C114.812 18.65 115.962 18.32 117.262 18.32C118.422 18.32 119.452 18.58 120.352 19.1C121.272 19.62 121.992 20.35 122.512 21.29C123.032 22.21 123.292 23.28 123.292 24.5V35H119.362V25.43C119.362 24.71 119.232 24.09 118.972 23.57C118.712 23.05 118.352 22.65 117.892 22.37C117.432 22.07 116.872 21.92 116.212 21.92C115.592 21.92 115.042 22.07 114.562 22.37C114.082 22.65 113.712 23.05 113.452 23.57C113.192 24.09 113.062 24.71 113.062 25.43V35H109.132V25.43C109.132 24.71 109.002 24.09 108.742 23.57C108.482 23.05 108.112 22.65 107.632 22.37C107.172 22.07 106.622 21.92 105.982 21.92C105.362 21.92 104.812 22.07 104.332 22.37C103.852 22.65 103.482 23.05 103.222 23.57C102.962 24.09 102.832 24.71 102.832 25.43V35H98.9023ZM126.617 35V18.68H130.547V35H126.617ZM126.617 16.85V12.65H130.547V16.85H126.617ZM134.176 35V18.68H137.866V21.89L137.566 21.32C137.946 20.34 138.566 19.6 139.426 19.1C140.306 18.58 141.326 18.32 142.486 18.32C143.686 18.32 144.746 18.58 145.666 19.1C146.606 19.62 147.336 20.35 147.856 21.29C148.376 22.21 148.636 23.28 148.636 24.5V35H144.706V25.43C144.706 24.71 144.566 24.09 144.286 23.57C144.006 23.05 143.616 22.65 143.116 22.37C142.636 22.07 142.066 21.92 141.406 21.92C140.766 21.92 140.196 22.07 139.696 22.37C139.196 22.65 138.806 23.05 138.526 23.57C138.246 24.09 138.106 24.71 138.106 25.43V35H134.176ZM156.909 35.36C155.769 35.36 154.779 35.17 153.939 34.79C153.099 34.41 152.449 33.87 151.989 33.17C151.529 32.45 151.299 31.62 151.299 30.68C151.299 29.78 151.499 28.98 151.899 28.28C152.299 27.56 152.919 26.96 153.759 26.48C154.599 26 155.659 25.66 156.939 25.46L162.279 24.59V27.59L157.689 28.37C156.909 28.51 156.329 28.76 155.949 29.12C155.569 29.48 155.379 29.95 155.379 30.53C155.379 31.09 155.589 31.54 156.009 31.88C156.449 32.2 156.989 32.36 157.629 32.36C158.449 32.36 159.169 32.19 159.789 31.85C160.429 31.49 160.919 31 161.259 30.38C161.619 29.76 161.799 29.08 161.799 28.34V24.14C161.799 23.44 161.519 22.86 160.959 22.4C160.419 21.92 159.699 21.68 158.799 21.68C157.959 21.68 157.209 21.91 156.549 22.37C155.909 22.81 155.439 23.4 155.139 24.14L151.929 22.58C152.249 21.72 152.749 20.98 153.429 20.36C154.129 19.72 154.949 19.22 155.889 18.86C156.829 18.5 157.849 18.32 158.949 18.32C160.289 18.32 161.469 18.57 162.489 19.07C163.509 19.55 164.299 20.23 164.859 21.11C165.439 21.97 165.729 22.98 165.729 24.14V35H162.009V32.21L162.849 32.15C162.429 32.85 161.929 33.44 161.349 33.92C160.769 34.38 160.109 34.74 159.369 35C158.629 35.24 157.809 35.36 156.909 35.36ZM176.508 35.18C174.668 35.18 173.238 34.68 172.218 33.68C171.218 32.66 170.718 31.23 170.718 29.39V22.19H167.898V18.68H168.198C168.998 18.68 169.618 18.47 170.058 18.05C170.498 17.63 170.718 17.02 170.718 16.22V14.96H174.648V18.68H178.398V22.19H174.648V29.18C174.648 29.72 174.738 30.18 174.918 30.56C175.118 30.94 175.418 31.23 175.818 31.43C176.238 31.63 176.768 31.73 177.408 31.73C177.548 31.73 177.708 31.72 177.888 31.7C178.088 31.68 178.278 31.66 178.458 31.64V35C178.178 35.04 177.858 35.08 177.498 35.12C177.138 35.16 176.808 35.18 176.508 35.18ZM189.054 35.36C187.374 35.36 185.904 34.98 184.644 34.22C183.384 33.46 182.404 32.43 181.704 31.13C181.004 29.83 180.654 28.39 180.654 26.81C180.654 25.17 181.004 23.72 181.704 22.46C182.424 21.18 183.394 20.17 184.614 19.43C185.854 18.69 187.234 18.32 188.754 18.32C190.034 18.32 191.154 18.53 192.114 18.95C193.094 19.37 193.924 19.95 194.604 20.69C195.284 21.43 195.804 22.28 196.164 23.24C196.524 24.18 196.704 25.2 196.704 26.3C196.704 26.58 196.684 26.87 196.644 27.17C196.624 27.47 196.574 27.73 196.494 27.95H183.894V24.95H194.274L192.414 26.36C192.594 25.44 192.544 24.62 192.264 23.9C192.004 23.18 191.564 22.61 190.944 22.19C190.344 21.77 189.614 21.56 188.754 21.56C187.934 21.56 187.204 21.77 186.564 22.19C185.924 22.59 185.434 23.19 185.094 23.99C184.774 24.77 184.654 25.72 184.734 26.84C184.654 27.84 184.784 28.73 185.124 29.51C185.484 30.27 186.004 30.86 186.684 31.28C187.384 31.7 188.184 31.91 189.084 31.91C189.984 31.91 190.744 31.72 191.364 31.34C192.004 30.96 192.504 30.45 192.864 29.81L196.044 31.37C195.724 32.15 195.224 32.84 194.544 33.44C193.864 34.04 193.054 34.51 192.114 34.85C191.194 35.19 190.174 35.36 189.054 35.36Z" fill="white"/>
</svg>
